<?xml version="1.0" encoding="UTF-8" standalone="no"?>
<svg
   version="1.1"
   width="449.90216"
   height="515.05109"
   id="svg36"
   sodipodi:docname="memoirlogo.svg"
   inkscape:version="1.3.2 (091e20e, 2023-11-25, custom)"
   xmlns:inkscape="http://www.inkscape.org/namespaces/inkscape"
   xmlns:sodipodi="http://sodipodi.sourceforge.net/DTD/sodipodi-0.dtd"
   xmlns="http://www.w3.org/2000/svg"
   xmlns:svg="http://www.w3.org/2000/svg">
  <sodipodi:namedview
     id="namedview1"
     pagecolor="#ffffff"
     bordercolor="#000000"
     borderopacity="0.25"
     inkscape:showpageshadow="2"
     inkscape:pageopacity="0.0"
     inkscape:pagecheckerboard="0"
     inkscape:deskcolor="#d1d1d1"
     inkscape:zoom="1.4113777"
     inkscape:cx="199.80477"
     inkscape:cy="334.07074"
     inkscape:window-width="1366"
     inkscape:window-height="715"
     inkscape:window-x="-8"
     inkscape:window-y="22"
     inkscape:window-maximized="1"
     inkscape:current-layer="svg36" />
  <defs
     id="defs36" />
  <path
     d="m 43.208684,0.38676083 c 1.172359,-0.004458 2.344718,-0.008916 3.552603,-0.0135086 1.925891,2.7655e-4 1.925891,2.7655e-4 3.890688,5.5868e-4 1.380984,-0.003301 2.761967,-0.007027 4.142949,-0.0111415 3.794536,-0.0100029 7.589056,-0.013734 11.383602,-0.0163893 4.092912,-0.003908 8.185812,-0.0134862 12.278716,-0.0222129 9.884603,-0.0197505 19.769207,-0.0298291 29.653828,-0.0387278 4.65753,-0.004385 9.31506,-0.009752 13.97259,-0.0149889 15.48755,-0.0170113 30.97508,-0.0315046 46.46264,-0.0387487 4.01793,-0.00191 8.03586,-0.00383 12.05379,-0.005786 0.99861,-4.8374e-4 1.99722,-9.6748e-4 3.02609,-0.001466 16.17018,-0.008297 32.34029,-0.0336289 48.51045,-0.0661148 16.61027,-0.0330973 33.22051,-0.0510846 49.83082,-0.0542776 9.3225,-0.002163 18.6449,-0.0108758 27.96737,-0.0364612 7.9409,-0.0217436 15.88167,-0.0297395 23.8226,-0.0200332 4.04823,0.004534 8.09618,0.00271 12.14438,-0.0167614 3.71382,-0.0177082 7.42716,-0.0165728 11.14099,-0.001103 1.96356,0.003476 3.92712,-0.0125929 5.89061,-0.029604495039 C 376.17151,0.09519424 387.69839,3.3899568 397.4995,12.485825 c 12.15925,12.68691 14.22393,26.232472 14.00782,43.097656 -0.0101,1.356113 -0.0192,2.712234 -0.0273,4.068359 -0.0234,3.289902 -0.0562,6.579425 -0.0977,9.869141 0.59426,-0.02095 1.18851,-0.04189 1.80078,-0.06348 2.73289,-0.08394 5.46552,-0.135427 8.19922,-0.186524 0.93457,-0.03352 1.86914,-0.06703 2.83203,-0.101562 7.51623,-0.105123 12.71344,1.32434 18.41015,6.316406 0.80825,0.976465 0.80825,0.976465 1.63282,1.972656 0.55429,0.648399 1.10859,1.296797 1.67968,1.964844 3.1755,4.608756 3.69628,8.543527 3.70259,14.088084 0.004,0.695007 0.007,1.390013 0.0106,2.10608 0.009,2.334299 0.004,4.668345 -4.7e-4,7.002665 0.004,1.68836 0.008,3.37671 0.0137,5.06507 0.0123,4.64406 0.012,9.28805 0.01,13.93212 -4e-4,5.00698 0.0106,10.01394 0.0201,15.0209 0.0166,9.81188 0.0221,19.62374 0.0232,29.43563 9.5e-4,7.97558 0.005,15.95116 0.0114,23.92673 0.0176,22.6082 0.0268,45.21637 0.0253,67.82457 -8e-5,1.21922 -1.6e-4,2.43843 -2.5e-4,3.69459 -8e-5,1.2207 -1.6e-4,2.4414 -2.4e-4,3.6991 -8.2e-4,19.78053 0.0183,39.56098 0.0465,59.34149 0.0287,20.30653 0.0425,40.61303 0.0408,60.91959 -6.6e-4,11.40211 0.005,22.80414 0.0264,34.20624 0.0182,9.70902 0.0226,19.41793 0.009,29.12697 -0.007,4.95313 -0.007,9.90604 0.0107,14.85915 0.0157,4.53708 0.0129,9.07376 -0.005,13.61083 -0.003,1.63865 5.7e-4,3.27732 0.0117,4.91593 0.0619,9.739 -0.0141,18.95118 -6.58121,26.79458 -1.01707,0.78697 -1.01707,0.78697 -2.05468,1.58984 -0.68321,0.54785 -1.36641,1.0957 -2.07032,1.66016 -3.33997,2.364 -5.45934,2.40473 -9.53133,2.41156 -1.22644,0.004 -2.45288,0.009 -3.71648,0.0135 -1.37343,-9e-5 -2.74686,-2.8e-4 -4.12029,-5.6e-4 -1.44938,0.003 -2.89876,0.007 -4.34814,0.0111 -3.99725,0.01 -7.99449,0.0137 -11.99175,0.0164 -4.30551,0.004 -8.61101,0.0135 -12.91652,0.0222 -10.40492,0.0198 -20.80983,0.0298 -31.21477,0.0387 -4.89653,0.004 -9.79306,0.01 -14.68959,0.015 -16.2715,0.017 -32.543,0.0315 -48.81451,0.0387 -4.2244,0.002 -8.44881,0.004 -12.67322,0.006 -1.04999,4.8e-4 -2.09998,9.6e-4 -3.18179,10e-4 -17.01575,0.008 -34.03143,0.0337 -51.04715,0.0661 -17.45879,0.033 -34.91754,0.0511 -52.37635,0.0543 -9.8069,0.002 -19.61371,0.0109 -29.42058,0.0365 -8.35069,0.0217 -16.70127,0.0298 -25.05199,0.02 -4.26202,-0.005 -8.52378,-0.003 -12.78576,0.0168 -3.90107,0.0176 -7.80169,0.0167 -11.702774,10e-4 -1.411887,-0.002 -2.823805,0.002 -4.235645,0.0138 -13.052713,0.10255 -13.052713,0.10255 -17.98604,-4.50521 -5.322637,-5.32264 -7.967557,-11.05385 -8.030029,-18.65259 0.0099,-1.10464 0.01982,-2.20929 0.03003,-3.34741 -0.856421,0.0157 -1.712841,0.0314 -2.595214,0.0476 -3.224261,0.0516 -6.448309,0.089 -9.672852,0.11719 -1.38679,0.0149 -2.773534,0.0353 -4.160156,0.0615 C 37.306962,489.0349 25.176629,485.70231 13.522767,474.88378 3.3972462,463.70506 0.26581322,449.96767 0.25071522,435.29146 c -0.0021,-0.68437 -0.0041,-1.36873 -0.0062,-2.07383 -0.0056,-2.27998 -0.0042,-4.5599 -0.0028,-6.83989 -0.0026,-1.65652 -0.0056,-3.31304 -0.009,-4.96957 -0.008,-4.54219 -0.0099,-9.08437 -0.0106,-13.62657 -0.0019,-4.90266 -0.0094,-9.80531 -0.01614,-14.70797 -0.01356,-10.71486 -0.0196,-21.42972 -0.02401,-32.1446 -0.0028,-6.69248 -0.007,-13.38497 -0.0115,-20.07745 -0.01219,-18.53642 -0.02249,-37.07284 -0.02588,-55.60926 -2.19e-4,-1.18568 -4.39e-4,-2.37136 -6.65e-4,-3.59297 -2.18e-4,-1.18848 -4.36e-4,-2.37696 -6.61e-4,-3.60145 -4.44e-4,-2.40822 -8.9e-4,-4.81644 -0.0013,-7.22466 -2.21e-4,-1.19456 -4.43e-4,-2.38912 -6.71e-4,-3.61987 -0.0039,-19.35865 -0.02141,-38.71726 -0.04469,-58.07589 -0.02372,-19.88401 -0.03618,-39.76801 -0.03734,-59.65203 -9.17e-4,-11.16067 -0.0067,-22.32129 -0.02482,-33.48195 -0.01541,-9.50247 -0.02052,-19.004872 -0.01226,-28.507348 0.0039,-4.846028 0.003,-9.691927 -0.01106,-14.53794 -0.01276,-4.441399 -0.0115200013,-8.882572 5.9e-4,-13.323971 0.002,-1.601581 -0.0011,-3.203178 -0.0098,-4.804736 C -0.07963178,38.861233 2.3219892,24.920323 13.382236,12.770497 21.521825,5.074444 31.995694,0.40658328 43.208684,0.38676083 Z M 29.382321,29.520982 c -4.340184,5.810437 -6.123508,10.339701 -6.134221,17.647835 -0.0024,0.682269 -0.0047,1.364538 -0.0071,2.067481 -0.0067,2.302959 -0.0062,4.605862 -0.0058,6.90883 -0.0033,1.661169 -0.007,3.322338 -0.01114,4.983506 -0.01003,4.578222 -0.01374,9.156432 -0.01639,13.734663 -0.0039,4.932725 -0.01348,9.865439 -0.02221,14.798157 -0.01978,11.920296 -0.02983,23.840596 -0.03873,35.760916 -0.0044,5.61215 -0.0097,11.2243 -0.01499,16.83645 -0.01701,18.6546 -0.03151,37.30919 -0.03875,55.9638 -0.0019,4.84262 -0.0038,9.68523 -0.0058,14.52785 -4.83e-4,1.20363 -9.67e-4,2.40726 -0.0015,3.64736 -0.0083,19.49545 -0.03363,38.99084 -0.06611,58.48626 -0.03307,20.01154 -0.05108,40.02305 -0.05428,60.03461 -0.0022,11.23731 -0.01092,22.47452 -0.03646,33.71179 -0.02171,9.57107 -0.02976,19.14202 -0.02003,28.71311 0.0045,4.88236 0.0026,9.7645 -0.01676,14.64683 -0.01763,4.47367 -0.01664,8.94695 -0.0011,13.42063 0.0024,1.61451 -0.002,3.22903 -0.01383,4.84349 -0.104937,14.55182 -0.104937,14.55182 6.181529,27.33791 8.56666,8.20328 18.212598,9.52025 29.652067,9.42973 1.969521,0.008 1.969521,0.008 3.978831,0.0168 3.620088,0.0147 7.239736,0.005 10.859809,-0.01 3.913483,-0.0112 7.826906,8.5e-4 11.740385,0.01 7.656564,0.0139 15.312959,0.006 22.969519,-0.009 8.92182,-0.0169 17.84359,-0.0136 26.76542,-0.01 15.92125,0.006 31.84242,-0.008 47.76365,-0.0329 15.43949,-0.0239 30.87886,-0.031 46.31836,-0.0205 16.82534,0.0114 33.65063,0.0133 50.47597,-10e-4 1.79491,-0.002 3.58982,-0.003 5.38473,-0.005 0.88307,-7.6e-4 1.76613,-0.002 2.67595,-0.002 6.21507,-0.005 12.43011,-0.003 18.64518,10e-4 7.57602,0.005 15.15193,-10e-4 22.72793,-0.0209 3.86342,-0.01 7.72668,-0.015 11.5901,-0.007 4.1916,0.008 8.3828,-0.007 12.57438,-0.0238 1.21595,0.006 2.43191,0.012 3.68472,0.0182 8.75403,-0.0654 16.60292,-0.96602 23.32918,-7.03089 1.06154,-0.91652 1.06154,-0.91652 2.14453,-1.85156 6.83647,-8.44428 6.61554,-17.51481 6.55763,-27.9138 0.005,-1.6712 0.0124,-3.34238 0.021,-5.01356 0.0186,-4.5781 0.0123,-9.15588 0.002,-13.73399 -0.007,-4.94285 0.009,-9.88563 0.022,-14.82846 0.0216,-9.67767 0.0215,-19.35523 0.0134,-29.03292 -0.006,-7.86632 -0.005,-15.73261 10e-4,-23.59893 10e-4,-1.67987 10e-4,-1.67987 0.003,-3.39368 0.002,-2.27516 0.004,-4.55031 0.006,-6.82546 0.0166,-21.33132 0.008,-42.66256 -0.009,-63.99387 -0.0147,-19.51194 -7e-5,-39.02373 0.0288,-58.53565 0.0294,-20.03999 0.0404,-40.07991 0.0308,-60.11992 -10e-4,-2.26705 -0.002,-4.53411 -0.003,-6.80116 -7.2e-4,-1.6731 -7.2e-4,-1.6731 -10e-4,-3.38001 -0.002,-7.85518 0.008,-15.7103 0.0222,-23.56547 0.0175,-9.57538 0.0174,-19.150557 -0.005,-28.725928 -0.0112,-4.88434 -0.0143,-9.768333 0.004,-14.652658 0.0168,-4.474099 0.0104,-8.947552 -0.0142,-13.421609 -0.005,-1.615643 -10e-4,-3.231338 0.0115,-4.846936 0.073,-9.882331 -0.43173,-18.403389 -7.37319,-26.037797 -7.6023,-7.375593 -16.44153,-7.53712 -26.47571,-7.482581 -1.33693,-0.0035 -2.67386,-0.0082 -4.01078,-0.01418 -3.65873,-0.01249 -7.31724,-0.0063 -10.97597,0.003 -3.95169,0.0068 -7.90334,-0.0037 -11.85502,-0.01194 -7.73568,-0.01333 -15.47127,-0.01046 -23.20696,-0.0018 -6.28836,0.0068 -12.57669,0.0077 -18.86504,0.0044 -1.34331,-6.9e-4 -1.34331,-6.9e-4 -2.71375,-0.0014 -1.81936,-9.59e-4 -3.63872,-0.0019 -5.45809,-0.0029 -17.05497,-0.0086 -34.1099,0.0013 -51.16486,0.0174 -14.62687,0.0134 -29.25366,0.01108 -43.88053,-0.0028 -16.99305,-0.01606 -33.98606,-0.02237 -50.97912,-0.01316 -1.81291,9.55e-4 -3.62583,0.0019 -5.43875,0.0028 -1.33792,6.94e-4 -1.33792,6.94e-4 -2.70287,0.0014 -6.27866,0.0026 -12.5573,-0.0018 -18.83596,-0.0088 -7.654746,-0.0084 -15.309399,-0.0061 -22.964134,0.0098 -3.903911,0.0079 -7.807668,0.01099 -11.711578,0.0011 -3.577126,-0.009 -7.153958,-0.004 -10.731058,0.01193 -1.899745,0.0049 -3.799511,-0.0048 -5.699234,-0.01517 -9.206776,0.06309 -17.359073,1.308464 -24.604525,7.40123 z"
     fill="#0D4643"
     id="path3"
     style="fill:#000000" />
  <path
     d="m 186.56201,55.876451 c 4.56643,3.213731 8.66526,7.007551 11.82032,11.644531 0,0.66 0,1.32 0,2 0.66,0 1.32,0 2,0 0.18562,-0.680625 0.37125,-1.36125 0.5625,-2.0625 4.06131,-8.299195 12.10633,-13.087966 20.51855,-16.345703 9.49001,-2.92669 20.17944,-0.867508 28.91895,3.408203 4.57127,2.873572 8.1616,5.754382 11.1875,10.25 3.95872,3.870749 7.89821,4.08407 13.24218,5.054688 11.91115,2.319677 20.89043,8.565699 28.06641,18.289062 4.60979,7.375665 6.6698,14.779668 6.5039,23.406248 0.88688,0.2475 1.77375,0.495 2.6875,0.75 9.00564,3.39836 15.31685,11.75923 19.3125,20.25 2.34109,5.47605 2.41905,10.69569 2.4375,16.5625 0.0112,1.46893 0.0112,1.46893 0.0227,2.96753 -0.0951,7.3328 -1.58376,12.15926 -4.67115,18.78247 -1.03878,2.65412 -1.03878,2.65412 -0.0781,5.1875 1.32163,2.26129 2.78213,4.35966 4.28906,6.5 4.20561,11.61549 2.92694,24.82355 -2,36 -6.05827,10.93556 -14.30136,17.74433 -26,22 -3.6875,0.8125 -3.6875,0.8125 -6,1 -0.18562,1.2375 -0.37125,2.475 -0.5625,3.75 -2.90373,12.68891 -12.00296,23.24792 -22.61327,30.38672 -12.98579,7.41823 -27.53002,10.25046 -42.26172,7.13672 -2.95939,-0.92858 -5.73627,-1.9987 -8.5625,-3.27344 -0.78633,-0.35062 -1.57266,-0.70125 -2.38282,-1.0625 -10.69947,-5.36838 -18.067,-14.14881 -24.61718,-23.9375 -0.37512,0.58008 -0.75024,1.16016 -1.13672,1.75781 -0.76764,1.17176 -0.76764,1.17176 -1.55078,2.36719 -0.49887,0.7657 -0.99774,1.53141 -1.51172,2.32031 -8.6352,12.25037 -19.77449,18.64702 -34.17578,22.12891 -16.03102,2.60027 -30.4016,-1.25098 -43.625,-10.57422 -8.23791,-6.5434 -15.52165,-16.38848 -17.843753,-26.77344 -0.833976,-3.43663 -0.833976,-3.43663 -3.878907,-4.75781 -1.102148,-0.31969 -2.204297,-0.63937 -3.339843,-0.96875 -10.967633,-3.71231 -19.875253,-11.25094 -25.250003,-21.625 -0.60369,-1.27294 -1.16298,-2.56745 -1.6875,-3.875 -0.35578,-0.86109 -0.71156,-1.72219 -1.07812,-2.60937 -1.23469,-4.54115 -1.34642,-8.82697 -1.35938,-13.51563 -0.003,-0.93054 -0.006,-1.86108 -0.01,-2.81982 0.13387,-7.72936 1.72334,-13.24268 5.44702,-20.05518 1.2634,-3.79021 0.47611,-5.10859 -0.875,-8.8125 -4.44946,-12.2749 -4.61687,-24.21554 0.875,-36.1875 4.37797,-7.74735 10.11046,-14.99179 18.5,-18.4375 0.825003,-0.18562 1.650003,-0.37125 2.500003,-0.5625 0.02578,-0.60586 0.05156,-1.21172 0.07813,-1.83594 0.844641,-12.47766 6.035984,-21.831423 15.109373,-30.351558 7.12384,-5.686434 14.65962,-8.795249 23.625,-10.1875 6.30218,-1.082386 8.84314,-2.436647 12.52735,-7.5625 11.04474,-13.720896 32.87198,-14.393426 46.8403,-5.707031 z"
     fill="#0D4543"
     id="path4"
     style="fill:#000000" />
  <path
     d="m 237.38232,69.520981 c 6.49638,2.492054 10.92662,7.346886 14.3125,13.3125 1.53806,6.012382 1.27971,12.034773 -1.14062,17.777339 -3.10507,5.06128 -8.33736,8.35765 -13.10938,11.72266 -3.08524,1.84308 -3.08524,1.84308 -4.0625,4.1875 -0.35519,3.83615 -0.54724,6.1463 1.5625,9.4375 3.50469,2.24659 5.30489,2.1624 9.4375,1.5625 9.76422,-3.4565 16.41305,-9.62396 21.375,-18.625 3.09251,-6.57158 4.00857,-13.190303 4.625,-20.374999 8.87507,1.267866 13.71717,6.072374 19,12.999999 2.37028,4.12222 2.5633,8.33272 2,13 -2.87469,8.94349 -7.45193,14.58392 -15.75,18.875 -1.12921,0.5543 -2.25843,1.10859 -3.42187,1.67969 -2.87359,1.28553 -2.87359,1.28553 -4.82813,3.44531 -0.32196,3.47721 -0.35247,6.10706 0.9375,9.375 3.41404,2.68985 6.79839,2.87583 11.0625,2.625 9.80915,-2.08639 17.38525,-9.10768 23.125,-17.0625 0.61875,-0.96937 1.2375,-1.93875 1.875,-2.9375 4.64685,0.82061 6.21545,3.26283 9,7 3.48551,5.58404 2.75536,13.12799 1.53516,19.38281 -1.84827,5.57763 -5.2491,10.82658 -10.49219,13.6836 -11.57848,4.58269 -30.33358,5.47753 -42.04297,0.93359 -6.03805,-3.05928 -10.36695,-7.12211 -14.58984,-12.36328 -1.72847,-2.00618 -2.80862,-2.56588 -5.43359,-2.875 -3.75005,-0.11836 -6.26323,-0.15236 -9.60157,1.67578 -1.76635,3.29184 -1.97013,5.33595 -1.34375,9.00391 4.24262,11.20529 16.035,17.19436 25.96875,22.55859 -2.22271,6.69142 -7.36272,11.08001 -13.52343,14.33203 -1.52867,0.66044 -3.07095,1.29089 -4.62891,1.87891 -2.04441,0.73743 -2.04441,0.73743 -3.84766,2.78906 -0.49621,3.04076 -0.43526,5.95314 0,9 2.13453,2.93497 3.82714,2.96799 7.375,3.625 8.24155,-0.33954 17.29047,-5.92835 23.125,-11.4375 4.52008,-4.97694 8.36802,-10.79154 10.5,-17.1875 0.94299,-0.0595 0.94299,-0.0595 1.90503,-0.12012 16.17031,-1.00291 16.17031,-1.00291 31.76685,-5.07519 2.32812,-0.80469 2.32812,-0.80469 5.32812,-0.80469 3.13504,7.44571 2.95521,15.32266 0.0977,22.83203 -3.18122,6.28321 -7.79513,10.89635 -14.35937,13.50391 -4.739,1.14925 -9.52853,1.20885 -14.38281,1.29297 -3.52132,0.38943 -4.97789,0.77522 -7.35548,3.37109 -0.61831,5.20173 -0.61831,5.20173 1.16797,9.89453 0.83203,2.10547 0.83203,2.10547 0.0312,4.83984 -5.28831,10.5493 -11.71181,17.21313 -22.88672,21.41797 -8.56786,2.19249 -17.87257,2.10871 -25.96484,-1.6875 -9.21163,-5.74768 -15.67344,-13.02841 -18.70888,-23.44995 -1.2309,-5.8096 -1.05517,-11.68067 -1.02696,-17.59326 -0.004,-1.44499 -0.009,-2.88997 -0.0159,-4.33494 -0.0136,-3.89667 -0.008,-7.79309 0.001,-11.68975 0.008,-4.09305 5.4e-4,-8.18608 -0.004,-12.27913 -0.005,-6.87012 0.002,-13.74014 0.016,-20.61024 0.0163,-7.92537 0.011,-15.8505 -0.006,-23.77586 -0.0136,-6.82493 -0.0155,-13.6498 -0.008,-20.47474 0.005,-4.06739 0.005,-8.13467 -0.005,-12.20206 -0.009,-3.82426 -0.003,-7.64823 0.0147,-11.47246 0.004,-1.39754 0.003,-2.7951 -0.004,-4.192621 -0.0386,-8.968452 0.0808,-17.417156 5.77311,-24.764828 5.99491,-5.994904 11.38293,-6.759624 19.625,-5.625 z"
     fill="#F5F0E2"
     id="path5"
     style="fill:#ff58b3;fill-opacity:1" />
  <path
     d="m 172.38232,69.520981 c 6.34589,3.115254 9.97944,7.829755 12.36904,14.437569 1.35767,5.513694 1.05529,11.220718 1.03502,16.86614 0.006,1.43983 0.0127,2.87965 0.0208,4.31946 0.0179,3.89284 0.0168,7.78544 0.0111,11.67831 -0.003,3.26004 0.003,6.52003 0.009,9.78006 0.014,7.69844 0.0125,15.39677 0.001,23.09522 -0.0115,7.91622 0.003,15.83211 0.0294,23.74828 0.0222,6.81815 0.0288,13.6362 0.0229,20.45438 -0.003,4.06253 -0.001,8.12485 0.0162,12.18734 0.0156,3.82514 0.0114,7.64977 -0.007,11.47488 -0.004,1.39467 -6.7e-4,2.78937 0.01,4.184 0.0854,12.22704 -1.71886,23.6909 -10.51719,32.77436 -8.57127,7.9432 -17.61951,10.78968 -29.24218,10.44922 -10.021,-1.19794 -18.20151,-5.78491 -24.47657,-13.58594 -3.31117,-4.59972 -5.16491,-8.16291 -5.28125,-13.86328 0.33,-0.66 0.66,-1.32 1,-2 0.41592,-4.05056 0.41592,-4.05056 0,-8 -2.33016,-2.51864 -3.786,-2.97289 -7.20703,-3.40625 -1.1898,-0.0309 -2.37961,-0.0619 -3.60547,-0.0937 -8.624764,-0.48163 -13.958119,-2.41761 -20.386715,-8.35938 -5.228162,-6.21482 -6.254384,-13.74925 -6.136718,-21.63281 0.36923,-2.75635 1.202408,-4.97777 2.335937,-7.50781 0.594258,0.19336 1.188516,0.38672 1.800781,0.58594 7.609583,2.39057 15.212187,4.50744 23.242185,4.40625 10.83787,-0.0535 10.83787,-0.0535 13.9961,2.9414 1.39843,2.50391 1.39843,2.50391 2.625,5.23438 4.26174,9.03439 12.85774,15.79701 21.7539,19.96484 4.47931,1.5044 8.92073,1.44089 13.58203,0.86719 2.82134,-1.40088 2.82134,-1.40088 4,-4 0.62076,-3.64694 0.30748,-5.42515 -1.4375,-8.6875 -2.55879,-2.30915 -3.51144,-2.71368 -6.6875,-3.5625 -6.15182,-1.7781 -10.80756,-5.89167 -14.875,-10.75 -0.78125,-2.78906 -0.78125,-2.78906 -1,-5 0.60586,-0.25652 1.21172,-0.51305 1.83594,-0.77734 8.94562,-4.08751 16.44482,-10.16548 22.16406,-18.22271 1.02688,-3.02953 1.34529,-5.81508 1,-9 -2.45859,-2.98012 -4.3445,-3.79516 -8,-4.9375 -3.84286,-0.0801 -4.99952,0.52249 -8,2.9375 -1.12035,1.27765 -2.22294,2.57099 -3.3125,3.875 -5.4519,6.41956 -11.34063,9.72966 -19.6875,11.125 -3.79617,0.29496 -7.56873,0.32496 -11.375,0.3125 -0.9771,0.0161 -1.95421,0.0322 -2.96093,0.0488 -7.73118,0.005 -14.850573,-1.04007 -21.539066,-5.11133 -6.442871,-6.82186 -7.502927,-14.14497 -7.402344,-23.24219 0.555888,-6.02861 2.95701,-10.11975 7.527344,-14.00778 0.9075,-0.66 1.815,-1.32 2.75,-2 2.446697,2.36777 4.759338,4.70482 6.914063,7.34766 5.905193,7.11844 12.262223,12.10969 21.453123,14.1875 3.70062,0.27231 5.59423,-0.50864 8.63281,-2.59766 2.5064,-3.68127 2.71526,-5.56651 2,-9.9375 -2.21784,-3.42757 -5.21577,-4.59671 -8.8125,-6.25 -6.54671,-3.13817 -10.08181,-7.69336 -14.125,-13.5625 -1.76171,-5.28513 -2.12012,-10.87612 -0.40625,-16.24219 3.27689,-6.356033 8.57735,-10.564594 15.28125,-12.820309 1.34936,-0.391966 2.70209,-0.773329 4.0625,-1.125 0.17016,0.99 0.34032,1.98 0.51563,3 2.2638,12.600949 5.67739,21.255189 15.48437,29.999999 4.79282,3.19313 10.08472,6.64385 16.0625,6.0625 3.69819,-1.18609 3.69819,-1.18609 5.9375,-4.0625 0.4589,-3.16131 0.71583,-4.99471 0,-8 -2.03447,-2.13619 -3.58558,-3.43114 -6,-5 -6.64197,-4.52978 -10.39434,-8.18303 -13,-15.999999 -0.78191,-6.498895 0.13901,-11.65314 4,-17 6.60312,-6.909528 12.4277,-9.125337 22,-8 z"
     fill="#F4F0E1"
     id="path6"
     style="fill:#ff58b3;fill-opacity:1" />
  <path
     d="m 77.187744,303.88606 c 1.31216,-0.0117 1.31216,-0.0117 2.650829,-0.0236 2.925171,-0.0199 5.84904,-0.004 8.77422,0.0116 2.099505,-0.007 4.199004,-0.0157 6.298492,-0.0265 5.698365,-0.0228 11.396275,-0.014 17.094635,0.002 5.96297,0.0127 11.92589,9.2e-4 17.88886,-0.007 10.01382,-0.009 20.02746,0.003 30.04126,0.0267 11.57789,0.0272 23.15533,0.0184 34.73321,-0.009 9.93988,-0.0227 19.87962,-0.0259 29.81951,-0.0128 5.93695,0.008 11.8737,0.009 17.81064,-0.008 5.58159,-0.0144 11.1626,-0.004 16.74413,0.0245 2.04864,0.007 4.09734,0.005 6.14597,-0.006 2.79644,-0.0137 5.59107,0.003 8.3874,0.0284 0.81109,-0.0111 1.62219,-0.0223 2.45786,-0.0338 5.77356,0.0999 8.31469,1.51841 12.34756,5.66872 1.57456,3.14911 1.34799,5.52009 1,9 -1.77281,2.97672 -3.85608,5.42804 -7,7 -2.78507,0.10458 -5.54551,0.14779 -8.33113,0.14717 -0.87206,0.004 -1.74412,0.007 -2.64261,0.0111 -2.93951,0.0111 -5.87897,0.0149 -8.8185,0.0187 -2.10053,0.006 -4.20106,0.0129 -6.30159,0.0199 -5.71904,0.0174 -11.43807,0.028 -17.15713,0.0362 -3.57035,0.005 -7.1407,0.0112 -10.71105,0.0175 -11.163,0.0191 -22.326,0.0333 -33.48901,0.0416 -12.90053,0.01 -25.80089,0.0361 -38.70136,0.0765 -9.96182,0.0301 -19.9236,0.045 -29.88546,0.0483 -5.95431,0.002 -11.90844,0.0114 -17.86271,0.0365 -5.60028,0.0232 -11.200265,0.0275 -16.800585,0.0172 -2.057148,-5e-4 -4.11431,0.006 -6.171412,0.0196 -2.80549,0.0176 -5.609877,0.0107 -8.415367,-0.002 -0.816734,0.011 -1.633469,0.0219 -2.474953,0.0332 -5.057097,-0.0575 -7.681604,-0.90022 -11.237129,-4.52099 -2.441413,-3.10725 -2.120422,-6.04461 -1.875,-9.90234 2.955616,-7.08559 8.912114,-7.82567 15.68042,-7.7326 z"
     fill="#0B4442"
     id="path7"
     style="fill:#000000"
     inkscape:export-filename="memoirlight.png"
     inkscape:export-xdpi="96"
     inkscape:export-ydpi="96" />
  <path
     d="m 75.150574,358.38054 c 0.716032,-0.003 1.432064,-0.006 2.169794,-0.009 2.417473,-0.009 4.834898,-0.0102 7.252386,-0.0117 1.726004,-0.005 3.452007,-0.01 5.178009,-0.015 4.702606,-0.0131 9.405197,-0.0196 14.107817,-0.024 2.93599,-0.003 5.87198,-0.007 8.80796,-0.0115 9.17997,-0.0137 18.35993,-0.0233 27.53991,-0.0272 10.60771,-0.004 21.21529,-0.022 31.82296,-0.051 8.19111,-0.0216 16.38219,-0.0317 24.57334,-0.033 4.89572,-0.001 9.79131,-0.007 14.687,-0.0248 4.60629,-0.0165 9.21237,-0.0186 13.81867,-0.01 1.69109,7.7e-4 3.3822,-0.004 5.07326,-0.0135 2.30841,-0.0127 4.61606,-0.007 6.92446,0.004 1.29197,-0.001 2.58395,-0.003 3.91508,-0.004 3.61974,0.40055 5.47226,1.20172 8.3611,3.37193 2.11481,2.6982 2.92463,4.55722 3.5,7.9375 -0.7041,4.31262 -2.46093,5.95107 -5.5,9.0625 -2.95334,1.47667 -5.59084,1.13284 -8.8885,1.14044 -0.71689,0.003 -1.43378,0.006 -2.17239,0.009 -2.41436,0.009 -4.82868,0.0102 -7.24306,0.0117 -1.72616,0.005 -3.45231,0.01 -5.17846,0.015 -4.69841,0.0131 -9.39681,0.0196 -14.09524,0.024 -2.93382,0.003 -5.86763,0.007 -8.80144,0.0115 -9.17463,0.0137 -18.34925,0.0233 -27.52388,0.0272 -10.59921,0.005 -21.19829,0.022 -31.79746,0.051 -8.18689,0.0216 -16.37374,0.0317 -24.56066,0.033 -4.89235,0.001 -9.78458,0.007 -14.6769,0.0248 -4.6022,0.0164 -9.204184,0.0186 -13.8064,0.01 -1.68948,-7.7e-4 -3.378971,0.004 -5.068422,0.0135 -2.306164,0.0127 -4.61157,0.007 -6.917728,-0.004 -1.290678,0.002 -2.581356,0.003 -3.911146,0.004 -3.631803,-0.40222 -5.478401,-1.16353 -8.35831,-3.37193 -2.66539,-3.99809 -2.841497,-7.29752 -2,-12 2.4375,-3 2.4375,-3 5.000001,-5 1.897848,-1.89783 5.251376,-1.13462 7.768249,-1.14042 z"
     fill="#0C4442"
     id="path8"
     style="fill:#000000" />
  <path
     d="m 73.790234,412.38054 c 1.148263,-0.006 2.296526,-0.0114 3.479584,-0.0173 1.266005,-0.001 2.532011,-0.002 3.83638,-0.003 1.34192,-0.005 2.683839,-0.01 4.025757,-0.015 3.650926,-0.0131 7.301835,-0.0196 10.952781,-0.024 2.28053,-0.003 4.561054,-0.007 6.841584,-0.0115 7.13392,-0.0137 14.26783,-0.0233 21.40176,-0.0272 8.23737,-0.004 16.47457,-0.022 24.71189,-0.051 6.36525,-0.0216 12.73045,-0.0317 19.09573,-0.033 3.80249,-0.001 7.60481,-0.007 11.40726,-0.0248 3.57788,-0.0165 7.1555,-0.0186 10.73341,-0.01 1.93731,0.001 3.87461,-0.0126 5.81186,-0.0268 1.15673,0.006 2.31345,0.0111 3.50522,0.0169 1.50462,-0.002 1.50462,-0.002 3.03963,-0.004 3.26167,0.44126 5.10939,1.43038 7.74924,3.37193 2.67905,4.01859 2.6961,7.27642 2,12 -1.79394,2.8703 -2.98264,4.49132 -6,6 -1.81079,0.10405 -3.6254,0.14388 -5.43915,0.1539 -1.15523,0.009 -2.31046,0.0172 -3.5007,0.0261 -1.27379,0.004 -2.54757,0.008 -3.85996,0.0129 -1.35015,0.008 -2.7003,0.0162 -4.05044,0.0248 -4.44052,0.0262 -8.88106,0.0415 -13.32163,0.0558 -1.52845,0.005 -3.0569,0.0107 -4.58536,0.0161 -6.35834,0.0216 -12.71668,0.0404 -19.07505,0.0516 -9.11264,0.0162 -18.22486,0.0494 -27.33735,0.1064 -6.40687,0.0387 -12.81363,0.0582 -19.22062,0.0635 -3.82668,0.004 -7.652901,0.0157 -11.479452,0.0481 -3.60182,0.0301 -7.20291,0.0364 -10.804828,0.0246 -1.947901,-3.2e-4 -3.895757,0.0241 -5.843495,0.0494 -9.551887,-0.0681 -9.551887,-0.0681 -13.2518,-3.04467 -2.593282,-3.01001 -3.150839,-3.90105 -3.605164,-7.83854 0.494273,-4.94273 1.913283,-6.28828 5.375,-9.75 2.600053,-1.30002 4.495171,-1.13179 7.407913,-1.14044 z"
     fill="#0C4341"
     id="path9"
     style="fill:#000000" />
  <path
     d="m 335.81103,291.87783 c 1.18916,-0.0206 2.37832,-0.0412 3.60352,-0.0625 1.14791,-0.005 2.29582,-0.0103 3.47852,-0.0156 1.05034,-0.009 2.10068,-0.0187 3.18286,-0.0283 3.63537,0.44337 6.31491,1.74875 8.9226,4.35644 0.26666,4.36247 0.27128,8.7307 0.29517,13.10034 0.0172,2.19311 0.0611,4.38469 0.10523,6.57739 0.0101,1.39518 0.0186,2.79036 0.0254,4.18555 0.0146,1.27142 0.0292,2.54284 0.0442,3.85278 -0.46998,3.28394 -0.46998,3.28394 -2.08667,5.69459 -4.4511,2.9683 -9.60941,2.2158 -14.80054,2.16577 -2.0117,-0.0139 -4.01873,0.0202 -6.03003,0.0584 -1.27424,-0.002 -2.54848,-0.004 -3.86133,-0.006 -1.1633,7.2e-4 -2.3266,0.001 -3.52515,0.002 -4.19216,-0.83559 -5.64709,-2.21191 -8.16626,-5.63111 -0.6311,-3.16626 -0.6311,-3.16626 -0.6289,-6.6914 -0.002,-1.27424 -0.004,-2.54848 -0.006,-3.86133 0.0125,-0.65831 0.025,-1.31662 0.0378,-1.99487 0.0344,-2.01355 0.0206,-4.02272 10e-4,-6.03638 0.0742,-9.77527 0.0742,-9.77527 2.5061,-12.76343 4.99299,-3.94868 10.77534,-2.87624 16.90216,-2.90255 z"
     fill="#0E4543"
     id="path10"
     style="fill:#000000" />
  <path
     d="m 328.19482,410.98973 c 0.65074,-0.004 1.30147,-0.008 1.97193,-0.0116 1.37168,-0.003 2.74341,0.005 4.11499,0.0214 2.0946,0.0214 4.18578,1.8e-4 6.28027,-0.0254 1.33595,0.003 2.67189,0.008 4.00781,0.0156 1.21043,0.005 2.42086,0.009 3.66797,0.0137 3.14453,0.51758 3.14453,0.51758 5.53492,2.125 2.14951,3.1951 2.14155,5.36859 2.17602,9.20508 0.009,0.9761 0.009,0.9761 0.0188,1.97192 0.007,1.37165 0.004,2.74339 -0.009,4.11499 -0.0139,2.09504 0.0202,4.18562 0.0584,6.28028 9.5e-4,1.33594 -9.1e-4,2.67188 -0.006,4.00781 7.3e-4,1.21043 0.001,2.42086 0.002,3.66797 -0.6311,3.14453 -0.6311,3.14453 -2.77954,5.5415 -3.32662,1.87009 -5.30832,2.09287 -9.10547,2.06397 -1.184,-0.004 -2.36801,-0.008 -3.58789,-0.0117 -1.84168,-0.0367 -1.84168,-0.0367 -3.72064,-0.0742 -1.23169,-0.001 -2.46339,-0.003 -3.73242,-0.004 -10.31445,-0.10117 -10.31445,-0.10117 -13.70508,-2.37109 -3.15824,-4.73737 -2.37195,-9.82178 -2.3706,-15.39673 -0.004,-2.03072 -0.0407,-4.05926 -0.0786,-6.0896 -0.004,-1.28197 -0.008,-2.56394 -0.0117,-3.88476 -0.008,-1.1749 -0.0164,-2.3498 -0.0249,-3.56031 0.48583,-3.0686 0.48583,-3.0686 2.08886,-5.4497 3.20266,-2.16305 5.35996,-2.1358 9.20947,-2.15015 z"
     fill="#0D4442"
     id="path11"
     style="fill:#000000" />
  <path
     d="m 328.81982,351.89207 c 1.22461,-0.002 2.44922,-0.004 3.71094,-0.006 1.90653,0.0358 1.90653,0.0358 3.85156,0.0723 1.27102,-0.011 2.54204,-0.0219 3.85157,-0.0332 9.21629,0.0728 9.21629,0.0728 13.01367,2.20313 2.84296,3.1863 2.75317,5.00894 2.72851,9.24023 4e-5,0.65311 9e-5,1.30622 1.3e-4,1.97911 -0.005,1.37596 -0.0229,2.75192 -0.0519,4.12758 -0.0419,2.10536 -0.0411,4.20753 -0.0342,6.31323 -0.0794,10.1395 -0.0794,10.1395 -1.84961,12.5896 -5.0106,3.45328 -11.7229,2.3677 -17.53321,2.39283 -1.18464,0.0206 -2.36929,0.0412 -3.58984,0.0625 -1.1434,0.005 -2.2868,0.0103 -3.46484,0.0156 -1.56597,0.014 -1.56597,0.014 -3.16358,0.0283 -3.34121,-0.40973 -5.21,-1.37446 -7.90674,-3.35645 -2.28148,-4.56297 -1.32019,-10.8032 -1.375,-15.8125 -0.0561,-1.92683 -0.0561,-1.92683 -0.11328,-3.89258 -0.0116,-1.23814 -0.0232,-2.47629 -0.0352,-3.75195 -0.0198,-1.13413 -0.0396,-2.26827 -0.0601,-3.43677 1.27179,-6.77027 5.58423,-8.73929 12.021,-8.73511 z"
     fill="#0D4442"
     id="path12"
     style="fill:#000000" />
  <path
     d="m 92.382324,240.52098 c 1.98,0.66 3.96,1.32 6,2 0,0.99 0,1.98 0,3 -0.99,0 -1.98,0 -3,0 0,-0.66 0,-1.32 0,-2 -0.99,0 -1.98,0 -3,0 0,-0.99 0,-1.98 0,-3 z"
     fill="#e9ece3"
     id="path30" />
</svg>
